<?xml version="1.0" encoding="UTF-8"?>
<!DOCTYPE svg PUBLIC "-//W3C//DTD SVG 1.1//EN" "http://www.w3.org/Graphics/SVG/1.1/DTD/svg11.dtd">
<!-- Creator: CorelDRAW -->
<svg xmlns="http://www.w3.org/2000/svg" xml:space="preserve" width="1.5748in" height="0.393701in" version="1.1" style="shape-rendering:geometricPrecision; text-rendering:geometricPrecision; image-rendering:optimizeQuality; fill-rule:evenodd; clip-rule:evenodd"
viewBox="0 0 1574.8 393.7"
 xmlns:xlink="http://www.w3.org/1999/xlink"
 xmlns:xodm="http://www.corel.com/coreldraw/odm/2003">
 <defs>
  <style type="text/css">
   <![CDATA[
    .fil7 {fill:#1F1F1F}
    .fil0 {fill:#F7381B}
    .fil1 {fill:#F85817}
    .fil2 {fill:#F97813}
    .fil3 {fill:#FB9810}
    .fil4 {fill:#FCB80C}
    .fil5 {fill:#FDD808}
    .fil6 {fill:#1F1F1F;fill-rule:nonzero}
   ]]>
  </style>
 </defs>
 <g id="Layer_x0020_1">
  <metadata id="CorelCorpID_0Corel-Layer"/>
  <g id="_1934066432352">
   <path class="fil0" d="M168.83 366.78c-78.57,0 -142.26,-63.69 -142.26,-142.26 0,-78.57 63.69,-142.26 142.26,-142.26 78.57,0 142.26,63.69 142.26,142.26 0,78.57 -63.69,142.26 -142.26,142.26z"/>
   <g>
    <path class="fil1" d="M168.83 362.82c-65.14,0 -117.95,-52.81 -117.95,-117.94 0,-65.14 52.81,-117.95 117.95,-117.95 65.14,0 117.94,52.81 117.94,117.95 0,65.14 -52.81,117.94 -117.94,117.94z"/>
    <path class="fil2" d="M168.83 358.87c-51.71,0 -93.63,-41.92 -93.63,-93.63 0,-51.71 41.92,-93.63 93.63,-93.63 51.71,0 93.63,41.92 93.63,93.63 0,51.71 -41.92,93.63 -93.63,93.63z"/>
    <path class="fil3" d="M168.83 354.92c-38.28,0 -69.31,-31.03 -69.31,-69.31 0,-38.28 31.03,-69.31 69.31,-69.31 38.28,0 69.31,31.04 69.31,69.31 0,38.28 -31.03,69.31 -69.31,69.31z"/>
    <path class="fil4" d="M168.83 350.96c-24.85,0 -45,-20.15 -45,-45 0,-24.85 20.15,-45 45,-45 24.85,0 45,20.15 45,45 0,24.85 -20.15,45 -45,45z"/>
   </g>
   <path class="fil5" d="M168.83 347.01c-11.43,0 -20.69,-9.26 -20.69,-20.68 0,-11.43 9.26,-20.69 20.69,-20.69 11.42,0 20.68,9.26 20.68,20.69 0,11.42 -9.26,20.68 -20.68,20.68z"/>
   <g>
    <path class="fil6" d="M1510.67 65.22c0,2.7 3.85,5.03 11.55,6.98 2.7,0.59 5.16,1.29 7.36,2.09 2.2,0.8 4.42,1.94 6.66,3.43 2.24,1.48 4,3.45 5.26,5.9 1.27,2.45 1.91,5.28 1.91,8.5 0,6.51 -2.45,11.55 -7.36,15.1 -4.91,3.47 -10.96,5.2 -18.15,5.2 -13.03,0 -21.91,-5.03 -26.65,-15.1l14.21 -7.99c1.94,5.5 6.09,8.25 12.43,8.25 5.83,0 8.76,-1.82 8.76,-5.46 0,-2.71 -3.85,-5.03 -11.55,-6.98 -2.88,-0.76 -5.33,-1.52 -7.36,-2.28 -2.03,-0.76 -4.23,-1.88 -6.6,-3.36 -2.37,-1.48 -4.17,-3.38 -5.39,-5.71 -1.22,-2.33 -1.84,-5.06 -1.84,-8.19 0,-6.26 2.28,-11.17 6.85,-14.72 4.65,-3.64 10.41,-5.46 17.26,-5.46 5.16,0 9.85,1.16 14.09,3.49 4.23,2.33 7.57,5.65 10.02,9.96l-13.96 7.61c-2.03,-4.31 -5.41,-6.47 -10.15,-6.47 -2.11,0 -3.87,0.49 -5.26,1.46 -1.4,0.97 -2.09,2.22 -2.09,3.74z"/>
    <polygon class="fil6" points="1455.98,91.61 1471.65,47.2 1489.47,47.2 1465.37,110.64 1446.71,110.64 1422.61,47.2 1440.43,47.2 "/>
    <path class="fil7" d="M1387.35 45.43c18.5,0 33.5,15 33.5,33.5 0,2.17 -0.21,4.29 -0.6,6.35l-8.97 0 -6.43 0 -34.36 0c2.57,6.82 9.15,11.67 16.87,11.67 5.24,0 9.96,-2.24 13.25,-5.81l0.78 0 17.17 0c-4.88,12.46 -17.01,21.29 -31.2,21.29 -18.5,0 -33.5,-15 -33.5,-33.5 0,-18.5 15,-33.5 33.5,-33.5zm0 15.48c7.72,0 14.3,4.85 16.87,11.67l-33.74 0c2.57,-6.82 9.15,-11.67 16.87,-11.67z"/>
    <path class="fil7" d="M1310.39 45.43c6.63,0 12.81,1.93 18.02,5.26l0 -23.19 0.58 0 7.44 0 7.44 0 0 50.28c0.01,0.38 0.02,0.76 0.02,1.15 0,18.5 -15,33.5 -33.5,33.5 -18.5,0 -33.5,-15 -33.5,-33.5 0,-18.5 15,-33.5 33.5,-33.5zm0 15.48c9.95,0 18.02,8.07 18.02,18.02 0,9.95 -8.07,18.02 -18.02,18.02 -9.95,0 -18.02,-8.06 -18.02,-18.02 0,-9.95 8.07,-18.02 18.02,-18.02z"/>
   </g>
   <g>
    <path class="fil7" d="M1501.08 310.21l41.21 0 0 -166.67 -41.21 0 0 22.2 -2.15 -2.71c-13.68,-17.22 -32.44,-24.23 -54.17,-24.23 -22.83,0 -41.78,8.96 -57.28,25.65 -16.29,17.54 -23.69,38.62 -23.69,62.42 0,23.91 7.28,45.2 23.69,62.75 15.51,16.59 34.54,25.32 57.28,25.32 21.73,0 40.49,-7.01 54.17,-24.23l2.15 -2.71 0 22.2zm-82.55 -47.99c-9.56,-9.68 -13.54,-21.85 -13.54,-35.34 0,-13.43 4.04,-25.39 13.54,-35 9.4,-9.52 20.99,-13.89 34.33,-13.89 13.33,0 25,4.3 34.33,13.88 9.74,9.49 13.88,21.49 13.88,35.01 0,13.61 -4.2,25.67 -13.88,35.34 -9.41,9.41 -21.09,13.54 -34.33,13.54 -13.22,0 -24.98,-4.07 -34.33,-13.55z"/>
    <path class="fil7" d="M814.34 310.21l41.21 0 0 -166.67 -41.21 0 0 22.2 -2.15 -2.71c-13.69,-17.22 -32.45,-24.23 -54.18,-24.23 -22.83,0 -41.78,8.96 -57.28,25.65 -16.29,17.54 -23.69,38.62 -23.69,62.42 0,23.91 7.28,45.2 23.69,62.75 15.51,16.59 34.54,25.32 57.28,25.32 21.73,0 40.49,-7.01 54.18,-24.23l2.15 -2.71 0 22.2zm-82.55 -47.99c-9.56,-9.68 -13.54,-21.85 -13.54,-35.34 0,-13.43 4.04,-25.39 13.54,-35 9.4,-9.52 20.99,-13.89 34.34,-13.89 13.33,0 24.99,4.3 34.33,13.88 9.73,9.49 13.88,21.49 13.88,35.01 0,13.61 -4.2,25.67 -13.88,35.34 -9.41,9.41 -21.1,13.54 -34.33,13.54 -13.22,0 -24.98,-4.07 -34.34,-13.55z"/>
    <path class="fil7" d="M1132.56 143.55l-41.21 0 0 166.67 41.21 0 0 -93.81c0,-10.28 2.01,-21.04 8.92,-29.03 6.28,-7.26 14.55,-10.39 24.07,-10.39 8.44,0 16.19,2.41 21.87,8.86 5.93,6.74 7.74,15.72 7.74,24.47l0 99.9 41.2 0 0 -93.81c0,-10.16 1.82,-21.19 8.57,-29.19 6.21,-7.35 14.65,-10.23 24.09,-10.23 8.44,0 16.19,2.41 21.87,8.86 5.93,6.74 7.74,15.72 7.74,24.47l0 99.9 41.21 0 0 -102.94c0,-18.39 -4.41,-36.11 -17.09,-49.91 -12.13,-13.19 -27.87,-18.55 -45.61,-18.55 -20.35,0 -37.73,6.69 -49.39,23.82l-1.06 1.56 -0.97 -1.63c-10.04,-16.81 -25.67,-23.76 -44.95,-23.76 -18.92,0 -35.23,6.09 -46,22.12l-2.21 3.29 0 -20.68z"/>
    <path class="fil7" d="M446.72 143.55l-41.21 0 0 166.67 41.21 0 0 -93.81c0,-10.28 2.01,-21.04 8.92,-29.03 6.28,-7.26 14.55,-10.39 24.07,-10.39 8.44,0 16.19,2.41 21.87,8.86 5.93,6.74 7.74,15.72 7.74,24.47l0 99.9 41.21 0 0 -93.81c0,-10.16 1.81,-21.19 8.57,-29.19 6.21,-7.35 14.65,-10.23 24.09,-10.23 8.44,0 16.19,2.41 21.87,8.86 5.93,6.74 7.74,15.72 7.74,24.47l0 99.9 41.21 0 0 -102.94c0,-18.39 -4.41,-36.11 -17.09,-49.91 -12.13,-13.19 -27.87,-18.55 -45.61,-18.55 -20.35,0 -37.72,6.69 -49.39,23.82l-1.06 1.56 -0.97 -1.63c-10.04,-16.81 -25.67,-23.76 -44.95,-23.76 -18.92,0 -35.23,6.09 -46,22.12l-2.21 3.29 0 -20.68z"/>
    <path class="fil7" d="M905.46 332.23l0 39.91 119.33 0c18.76,0 34.07,-15.31 34.07,-34.07 0,-64.84 0,-129.68 0,-194.52l-40.19 0 0 23.38 -2.17 -2.9c-13.21,-17.62 -31.4,-25.22 -53.14,-25.22 -23.22,0 -42.9,8.23 -58.98,24.99 -16.18,16.85 -24.01,37.03 -24.01,60.37 0,23.35 7.73,43.65 23.68,60.71 16.22,16.67 36.08,24.65 59.32,24.65 21.74,0 39.93,-7.6 53.14,-25.22l2.17 -2.9 0 50.81 -113.2 0zm99.31 -141.72c9.71,8.99 13.9,20.52 13.9,33.67 0,13.24 -4.19,24.89 -13.72,34.17 -9.6,9.36 -21.51,13.36 -34.83,13.36 -13.32,0 -25.23,-4 -34.83,-13.36 -9.53,-9.29 -13.72,-20.93 -13.72,-34.17 0,-13.05 4.03,-24.61 13.57,-33.67 9.75,-9.27 21.57,-13.52 34.98,-13.52 13.31,0 25.17,4.05 34.65,13.52z"/>
   </g>
  </g>
 </g>
</svg>
