<svg width="7.2268mm" height="7.2268mm" version="1.1" viewBox="0 0 7.2268 7.2268" xmlns="http://www.w3.org/2000/svg"><defs><style type="text/css"><![CDATA[
    .fil0 {fill:none}
    .fil1 {fill:#F7381B}
    .fil2 {fill:#F85817}
    .fil3 {fill:#F97813}
    .fil4 {fill:#FB9810}
    .fil5 {fill:#FCB80C}
    .fil6 {fill:#FDD808}
   ]]></style><style type="text/css"><![CDATA[
    .fil0 {fill:none}
    .fil1 {fill:#F7381B}
    .fil2 {fill:#F85817}
    .fil3 {fill:#F97813}
    .fil4 {fill:#FB9810}
    .fil5 {fill:#FCB80C}
    .fil6 {fill:#FDD808}
   ]]></style></defs><g transform="translate(-24.713 -68.521)"><g transform="matrix(.0254 0 0 .0254 24.155 66.77)" clip-rule="evenodd" fill-rule="evenodd" image-rendering="optimizeQuality" shape-rendering="geometricPrecision"><g transform="translate(-433.58 113.56)" clip-rule="evenodd" fill-rule="evenodd" image-rendering="optimizeQuality" shape-rendering="geometricPrecision"><g transform="translate(403.55 -102.33)"><path class="fil1" d="m194.25 342.26c-78.57 0-142.26-63.69-142.26-142.26s63.69-142.26 142.26-142.26 142.26 63.69 142.26 142.26-63.69 142.26-142.26 142.26z"/><path class="fil2" d="m194.25 338.31c-65.14 0-117.95-52.81-117.95-117.94 0-65.14 52.81-117.95 117.95-117.95s117.94 52.81 117.94 117.95-52.81 117.94-117.94 117.94z"/><path class="fil3" d="m194.25 334.36c-51.71 0-93.63-41.92-93.63-93.63s41.92-93.63 93.63-93.63 93.63 41.92 93.63 93.63-41.92 93.63-93.63 93.63z"/><path class="fil4" d="m194.25 330.41c-38.28 0-69.31-31.03-69.31-69.31s31.03-69.31 69.31-69.31 69.31 31.04 69.31 69.31c0 38.28-31.03 69.31-69.31 69.31z"/><path class="fil5" d="m194.25 326.45c-24.85 0-45-20.15-45-45s20.15-45 45-45 45 20.15 45 45-20.15 45-45 45z"/><path class="fil6" d="m194.25 322.5c-11.43 0-20.69-9.26-20.69-20.68 0-11.43 9.26-20.69 20.69-20.69 11.42 0 20.68 9.26 20.68 20.69 0 11.42-9.26 20.68-20.68 20.68z"/></g></g></g></g></svg>
