<svg viewBox="0 0 320 200" xmlns="http://www.w3.org/2000/svg" role="img" aria-label="Using the API">
  <defs>
    <pattern id="api-grid" width="16" height="16" patternUnits="userSpaceOnUse">
      <circle cx="2" cy="2" r="1" fill="#FF3900" fill-opacity="0.10"/>
    </pattern>
  </defs>
  <rect width="320" height="200" fill="#FFFFFF"/>
  <rect width="320" height="200" fill="url(#api-grid)"/>
  <g transform="translate(80 50)">
    <rect width="160" height="100" rx="8" fill="#FFFFFF" stroke="#CC2E00" stroke-width="1.5"/>
    <path d="M 0 8 Q 0 0, 8 0 L 152 0 Q 160 0, 160 8 L 160 16 L 0 16 Z" fill="#FF3900" fill-opacity="0.10"/>
    <circle cx="10" cy="8" r="2.5" fill="#FF3900"/>
    <circle cx="20" cy="8" r="2.5" fill="#FF3900" fill-opacity="0.5"/>
    <circle cx="30" cy="8" r="2.5" fill="#FF3900" fill-opacity="0.25"/>
    <rect x="14" y="30" width="38" height="5" rx="2" fill="#FF3900" fill-opacity="0.7"/>
    <rect x="56" y="30" width="58" height="5" rx="2" fill="#FF3900" fill-opacity="0.3"/>
    <rect x="14" y="44" width="22" height="5" rx="2" fill="#FF3900" fill-opacity="0.3"/>
    <rect x="40" y="44" width="68" height="5" rx="2" fill="#FF3900" fill-opacity="0.7"/>
    <rect x="14" y="58" width="46" height="5" rx="2" fill="#FF3900" fill-opacity="0.5"/>
    <rect x="64" y="58" width="32" height="5" rx="2" fill="#FF3900" fill-opacity="0.7"/>
    <rect x="14" y="72" width="80" height="5" rx="2" fill="#FF3900" fill-opacity="0.3"/>
  </g>
  <g transform="translate(40 100)">
    <path d="M 0 0 L 28 0" stroke="#CC2E00" stroke-width="2.5" stroke-linecap="round"/>
    <path d="M 22 -6 L 30 0 L 22 6" stroke="#CC2E00" stroke-width="2.5" stroke-linecap="round" stroke-linejoin="round" fill="none"/>
  </g>
</svg>
