<svg viewBox="0 0 320 200" xmlns="http://www.w3.org/2000/svg" role="img" aria-label="Supported chains">
  <defs>
    <pattern id="ch-grid" width="16" height="16" patternUnits="userSpaceOnUse">
      <circle cx="2" cy="2" r="1" fill="#FF3900" fill-opacity="0.10"/>
    </pattern>
  </defs>
  <rect width="320" height="200" fill="#FFFFFF"/>
  <rect width="320" height="200" fill="url(#ch-grid)"/>
  <g transform="translate(160 100)">
    <line x1="-60" y1="-30" x2="0" y2="-50" stroke="#FF3900" stroke-opacity="0.5" stroke-width="1.5"/>
    <line x1="60" y1="-30" x2="0" y2="-50" stroke="#FF3900" stroke-opacity="0.5" stroke-width="1.5"/>
    <line x1="-60" y1="-30" x2="60" y2="-30" stroke="#FF3900" stroke-opacity="0.5" stroke-width="1.5"/>
    <line x1="-60" y1="-30" x2="-30" y2="40" stroke="#FF3900" stroke-opacity="0.5" stroke-width="1.5"/>
    <line x1="60" y1="-30" x2="30" y2="40" stroke="#FF3900" stroke-opacity="0.5" stroke-width="1.5"/>
    <line x1="-30" y1="40" x2="30" y2="40" stroke="#FF3900" stroke-opacity="0.5" stroke-width="1.5"/>
    <line x1="0" y1="-50" x2="-30" y2="40" stroke="#FF3900" stroke-opacity="0.5" stroke-width="1.5"/>
    <line x1="0" y1="-50" x2="30" y2="40" stroke="#FF3900" stroke-opacity="0.5" stroke-width="1.5"/>

    <circle cx="0" cy="-50" r="11" fill="#FF3900" stroke="#FFFFFF" stroke-width="2"/>
    <circle cx="-60" cy="-30" r="9" fill="#FFFFFF" stroke="#CC2E00" stroke-width="2"/>
    <circle cx="60" cy="-30" r="9" fill="#FFFFFF" stroke="#CC2E00" stroke-width="2"/>
    <circle cx="-30" cy="40" r="9" fill="#FFFFFF" stroke="#CC2E00" stroke-width="2"/>
    <circle cx="30" cy="40" r="9" fill="#FFFFFF" stroke="#CC2E00" stroke-width="2"/>

    <circle cx="0" cy="-50" r="4" fill="#FFFFFF"/>
  </g>
</svg>
